<svg 
 xmlns="http://www.w3.org/2000/svg"
 xmlns:xlink="http://www.w3.org/1999/xlink"
 width="2232.5px" height="735.5px">
<path fill-rule="evenodd"  stroke="rgb(0, 0, 0)" stroke-width="1px" stroke-linecap="butt" stroke-linejoin="miter" fill="rgb(52, 52, 52)"
 d="M1.500,1.500 C212.485,1.500 423.470,1.500 634.455,1.500 C605.163,54.974 575.870,108.448 546.578,161.922 C441.797,161.605 337.017,161.288 232.236,160.971 C232.236,210.347 232.236,259.738 232.236,309.114 C306.529,309.405 380.844,309.695 455.136,309.986 C433.951,363.138 412.760,416.305 391.575,469.457 C338.467,469.457 285.344,469.457 232.236,469.457 C232.236,557.463 232.236,645.495 232.236,733.500 C155.332,733.500 78.404,733.500 1.500,733.500 C1.500,489.524 1.500,245.476 1.500,1.500 ZM633.630,1.500 C761.763,1.500 889.896,1.500 1018.029,1.500 C1008.639,1.310 999.526,2.460 990.715,5.065 C844.504,48.294 844.083,473.635 860.884,733.500 C784.843,733.500 708.801,733.500 632.760,733.500 C633.050,489.524 633.340,245.476 633.630,1.500 ZM1018.481,1.500 C1255.441,1.500 1492.401,1.500 1729.361,1.500 C1690.172,54.182 1650.984,106.864 1611.795,159.545 C1490.936,160.021 1370.077,160.496 1249.218,160.971 C1249.218,210.347 1249.218,259.738 1249.218,309.114 C1323.510,309.114 1397.825,309.114 1472.118,309.114 C1457.317,346.872 1442.512,384.642 1427.712,422.400 C1421.937,436.452 1418.698,459.189 1408.556,469.457 C1355.449,469.457 1302.325,469.457 1249.218,469.457 C1249.218,557.463 1249.218,645.495 1249.218,733.500 C1172.313,733.500 1095.386,733.500 1018.481,733.500 C1018.481,489.524 1018.481,245.476 1018.481,1.500 ZM1729.846,1.500 C1809.072,1.500 1888.322,1.500 1967.548,1.500 C2055.190,245.476 2142.858,489.524 2230.500,733.500 C2154.466,733.210 2078.410,732.919 2002.376,732.629 C1992.799,700.098 1983.219,667.559 1973.643,635.029 C1887.742,635.029 1801.815,635.029 1715.915,635.029 C1706.628,667.849 1697.339,700.679 1688.052,733.500 C1614.630,733.500 1541.186,733.500 1467.764,733.500 C1555.116,489.524 1642.494,245.476 1729.846,1.500 ZM1844.779,190.600 C1815.468,291.676 1786.148,392.782 1756.837,493.857 C1816.330,494.148 1875.840,494.438 1935.332,494.729 C1935.332,493.857 1935.332,492.986 1935.332,492.114 C1905.150,391.620 1874.960,291.095 1844.779,190.600 Z"/>
</svg>