<svg 
 xmlns="http://www.w3.org/2000/svg"
 xmlns:xlink="http://www.w3.org/1999/xlink"
 width="1000.5px" height="331.5px">
<path fill-rule="evenodd"  stroke="rgb(0, 0, 0)" stroke-width="1px" stroke-linecap="butt" stroke-linejoin="miter" fill="rgb(52, 52, 52)"
 d="M1.500,1.500 C95.871,1.500 190.241,1.500 284.612,1.500 C271.510,25.388 258.408,49.276 245.306,73.164 C198.439,73.022 151.572,72.881 104.705,72.739 C104.705,94.797 104.705,116.861 104.705,138.918 C137.935,139.048 171.175,139.177 204.405,139.307 C244.980,154.111 269.915,174.883 267.500,188.500 C264.907,203.125 229.672,215.671 175.975,210.546 C152.218,210.546 128.462,210.546 104.705,210.546 C104.705,249.860 104.705,289.186 104.705,328.500 C70.307,328.500 35.898,328.500 1.500,328.500 C1.500,219.511 1.500,110.489 1.500,1.500 ZM284.243,1.500 C341.555,1.500 398.867,1.500 456.179,1.500 C456.253,1.500 449.864,0.721 443.962,3.093 C401.537,20.141 426.030,181.688 456.500,327.500 C338.833,327.833 221.167,328.167 103.500,328.500 C169.599,335.454 239.454,313.349 283.935,259.801 C340.721,191.440 344.092,84.448 284.243,1.500 ZM456.381,1.500 C562.370,1.500 668.359,1.500 774.348,1.500 C756.819,25.034 739.291,48.568 721.762,72.102 C667.703,72.315 613.645,72.527 559.586,72.739 C559.586,94.797 559.586,116.861 559.586,138.918 C592.816,138.918 626.056,138.918 659.286,138.918 C678.186,145.240 694.341,157.291 703.500,174.500 C719.295,204.178 713.730,247.979 693.500,255.500 C677.426,261.476 649.735,245.414 630.856,210.546 C607.102,210.546 583.341,210.546 559.586,210.546 C559.586,249.860 559.586,289.186 559.586,328.500 C525.188,328.500 490.779,328.500 456.381,328.500 C456.381,219.511 456.381,110.489 456.381,1.500 ZM774.564,1.500 C810.001,1.500 845.448,1.500 880.885,1.500 C920.086,110.489 959.299,219.511 998.500,328.500 C964.491,328.370 930.472,328.240 896.463,328.111 C892.180,313.579 887.895,299.043 883.611,284.511 C845.189,284.511 806.755,284.511 768.333,284.511 C764.179,299.172 760.024,313.838 755.871,328.500 C690.747,328.833 625.624,329.167 560.500,329.500 C631.855,220.167 703.210,110.833 774.564,1.500 ZM825.972,85.975 C812.862,131.128 799.748,176.294 786.637,221.446 C813.247,221.576 839.865,221.706 866.475,221.836 C866.475,221.446 866.475,221.057 866.475,220.668 C852.976,175.775 839.472,130.868 825.972,85.975 Z"/>
</svg>